<svg xmlns="http://www.w3.org/2000/svg" viewBox="0 0 96 96" role="img" aria-label="Apple Music">
  <defs>
    <linearGradient id="g" x1="18" y1="84" x2="78" y2="12" gradientUnits="userSpaceOnUse">
      <stop stop-color="#fa233b"/>
      <stop offset=".55" stop-color="#fb5c74"/>
      <stop offset="1" stop-color="#c344ff"/>
    </linearGradient>
  </defs>
  <rect width="96" height="96" rx="24" fill="url(#g)"/>
  <path fill="#fff" d="M62 21v37.4c0 7.3-5.8 11.7-12.6 10.3-5.3-1.1-8.7-5.1-7.8-9.3.9-4.6 6.2-7.4 12-6.2 1.1.2 2.1.6 3 1V32.5L37 36.3v27.4c0 7.3-5.8 11.7-12.6 10.3-5.3-1.1-8.7-5.1-7.8-9.3.9-4.6 6.2-7.4 12-6.2 1.1.2 2.1.6 3 1V28.2L62 21Z"/>
</svg>
